<?xml version="1.0" encoding="UTF-8" standalone="no"?>
      <svg width="200px" height="348px" xmlns="http://www.w3.org/2000/svg" version="1.1">
            <defs>
                <filter id="dropshadow" height="100%">
                  <feGaussianBlur in="SourceAlpha" stdDeviation="0"/>
                    <feOffset dx="1" dy="1" result="offsetblur"/>
                    <feMerge> 
                      <feMergeNode/>
                      <feMergeNode in="SourceGraphic"/>
                   </feMerge>
                </filter>
            </defs>
            <g opacity="0.18" filter="url(#dropshadow)">
                <g transform="translate(33,-24)rotate(23)">
                    <path d="M82,142 C48,142 22,115 22,82 C22,48 48,22 82,22 C115,22 142,48 142,82 C142,115 115,142 82,142 Z M82,107 C67,107 56,95 56,81 C56,67 67,56 82,56 C96,56 108,67 108,81 C108,95 96,107 82,107 Z M82,115 C100,115 115,100 115,82 C115,63 100,49 82,49 C63,49 49,63 49,82 C49,100 63,115 82,115 Z M82,95 C90,95 97,89 97,81 C97,73 90,67 82,67 C73,67 67,73 67,81 C67,89 73,95 82,95 Z M82,95" fill="#8CA1AF" ></path>
                    <path id="Rectangle 14" d="M74,6 L90,6 L90,24 C87,24 84,24 82,24 C79,24 76,24 74,24 Z M116,35 L130,22 L141,33 L128,47 C124,42 121,39 116,35 Z M139,74 L158,74 L158,90 L139,90 C139,87 140,85 140,82 C140,79 139,76 139,74 Z M128,117 L141,130 L130,141 L117,128 C121,125 125,121 128,117 Z M90,140 L90,158 L74,158 L74,140 C76,140 79,141 82,141 C84,141 87,140 90,140 Z M46,128 L33,141 L22,130 L35,117 C38,121 42,125 46,128 Z M24,90 L6,90 L6,74 L24,74 C24,76 24,79 24,82 C24,85 24,87 24,90 Z M35,47 L22,33 L33,22 L47,35 C42,39 39,42 35,47 Z M35,47" fill="#8CA1AF"></path>
                </g>
                <g transform="scale(0.666)translate(156,174)rotate(15)">
                    <path d="M82,142 C48,142 22,115 22,82 C22,48 48,22 82,22 C115,22 142,48 142,82 C142,115 115,142 82,142 Z M82,107 C67,107 56,95 56,81 C56,67 67,56 82,56 C96,56 108,67 108,81 C108,95 96,107 82,107 Z M82,115 C100,115 115,100 115,82 C115,63 100,49 82,49 C63,49 49,63 49,82 C49,100 63,115 82,115 Z M82,95 C90,95 97,89 97,81 C97,73 90,67 82,67 C73,67 67,73 67,81 C67,89 73,95 82,95 Z M82,95" fill="#8CA1AF" ></path>
                    <path id="Rectangle 14" d="M74,6 L90,6 L90,24 C87,24 84,24 82,24 C79,24 76,24 74,24 Z M116,35 L130,22 L141,33 L128,47 C124,42 121,39 116,35 Z M139,74 L158,74 L158,90 L139,90 C139,87 140,85 140,82 C140,79 139,76 139,74 Z M128,117 L141,130 L130,141 L117,128 C121,125 125,121 128,117 Z M90,140 L90,158 L74,158 L74,140 C76,140 79,141 82,141 C84,141 87,140 90,140 Z M46,128 L33,141 L22,130 L35,117 C38,121 42,125 46,128 Z M24,90 L6,90 L6,74 L24,74 C24,76 24,79 24,82 C24,85 24,87 24,90 Z M35,47 L22,33 L33,22 L47,35 C42,39 39,42 35,47 Z M35,47" fill="#8CA1AF"></path>
                </g>
                <g transform="scale(0.4444)translate(176,360)rotate(66)">
                    <path d="M82,142 C48,142 22,115 22,82 C22,48 48,22 82,22 C115,22 142,48 142,82 C142,115 115,142 82,142 Z M82,107 C67,107 56,95 56,81 C56,67 67,56 82,56 C96,56 108,67 108,81 C108,95 96,107 82,107 Z M82,115 C100,115 115,100 115,82 C115,63 100,49 82,49 C63,49 49,63 49,82 C49,100 63,115 82,115 Z M82,95 C90,95 97,89 97,81 C97,73 90,67 82,67 C73,67 67,73 67,81 C67,89 73,95 82,95 Z M82,95" fill="#8CA1AF" ></path>
                    <path id="Rectangle 14" d="M74,6 L90,6 L90,24 C87,24 84,24 82,24 C79,24 76,24 74,24 Z M116,35 L130,22 L141,33 L128,47 C124,42 121,39 116,35 Z M139,74 L158,74 L158,90 L139,90 C139,87 140,85 140,82 C140,79 139,76 139,74 Z M128,117 L141,130 L130,141 L117,128 C121,125 125,121 128,117 Z M90,140 L90,158 L74,158 L74,140 C76,140 79,141 82,141 C84,141 87,140 90,140 Z M46,128 L33,141 L22,130 L35,117 C38,121 42,125 46,128 Z M24,90 L6,90 L6,74 L24,74 C24,76 24,79 24,82 C24,85 24,87 24,90 Z M35,47 L22,33 L33,22 L47,35 C42,39 39,42 35,47 Z M35,47" fill="#8CA1AF"></path>
                </g>
            </g>
        </svg>

